<mxfile host="app.diagrams.net" agent="Mozilla/5.0 (Windows NT 10.0; Win64; x64) AppleWebKit/537.36 (KHTML, like Gecko) Chrome/134.0.0.0 Safari/537.36" version="26.2.4">
  <diagram id="R2lEEEUBdFMjLlhIrx00" name="Page-1">
    <mxGraphModel dx="8160" dy="4713" grid="1" gridSize="10" guides="1" tooltips="1" connect="1" arrows="1" fold="1" page="0" pageScale="1" pageWidth="850" pageHeight="1100" math="0" shadow="0" extFonts="Permanent Marker^https://fonts.googleapis.com/css?family=Permanent+Marker">
      <root>
        <mxCell id="0" />
        <mxCell id="1" parent="0" />
        <mxCell id="ilbIun8MK31R_7p89Azp-30" style="edgeStyle=orthogonalEdgeStyle;rounded=0;orthogonalLoop=1;jettySize=auto;html=1;exitX=0;exitY=0.5;exitDx=0;exitDy=0;entryX=1;entryY=0.5;entryDx=0;entryDy=0;" edge="1" parent="1" source="ilbIun8MK31R_7p89Azp-2" target="ilbIun8MK31R_7p89Azp-18">
          <mxGeometry relative="1" as="geometry">
            <Array as="points">
              <mxPoint x="165" y="-60" />
              <mxPoint x="140" y="-60" />
              <mxPoint x="140" y="-130" />
            </Array>
          </mxGeometry>
        </mxCell>
        <mxCell id="ilbIun8MK31R_7p89Azp-31" style="edgeStyle=orthogonalEdgeStyle;rounded=0;orthogonalLoop=1;jettySize=auto;html=1;exitX=0;exitY=0.25;exitDx=0;exitDy=0;entryX=1;entryY=0.5;entryDx=0;entryDy=0;" edge="1" parent="1" source="ilbIun8MK31R_7p89Azp-2" target="ilbIun8MK31R_7p89Azp-22">
          <mxGeometry relative="1" as="geometry">
            <Array as="points">
              <mxPoint x="175" y="-45" />
              <mxPoint x="175" y="-190" />
            </Array>
          </mxGeometry>
        </mxCell>
        <mxCell id="ilbIun8MK31R_7p89Azp-32" style="edgeStyle=orthogonalEdgeStyle;rounded=0;orthogonalLoop=1;jettySize=auto;html=1;exitX=0;exitY=0;exitDx=0;exitDy=0;entryX=1;entryY=0.5;entryDx=0;entryDy=0;" edge="1" parent="1" source="ilbIun8MK31R_7p89Azp-2" target="ilbIun8MK31R_7p89Azp-26">
          <mxGeometry relative="1" as="geometry">
            <Array as="points">
              <mxPoint x="195" y="-60" />
              <mxPoint x="195" y="-250" />
            </Array>
          </mxGeometry>
        </mxCell>
        <mxCell id="ilbIun8MK31R_7p89Azp-33" style="edgeStyle=orthogonalEdgeStyle;rounded=0;orthogonalLoop=1;jettySize=auto;html=1;exitX=0.25;exitY=0;exitDx=0;exitDy=0;entryX=1;entryY=0.5;entryDx=0;entryDy=0;" edge="1" parent="1" source="ilbIun8MK31R_7p89Azp-2" target="ilbIun8MK31R_7p89Azp-16">
          <mxGeometry relative="1" as="geometry">
            <Array as="points">
              <mxPoint x="215" y="-60" />
              <mxPoint x="215" y="-310" />
            </Array>
          </mxGeometry>
        </mxCell>
        <mxCell id="ilbIun8MK31R_7p89Azp-34" style="edgeStyle=orthogonalEdgeStyle;rounded=0;orthogonalLoop=1;jettySize=auto;html=1;exitX=0.75;exitY=0;exitDx=0;exitDy=0;entryX=0;entryY=0.5;entryDx=0;entryDy=0;" edge="1" parent="1" source="ilbIun8MK31R_7p89Azp-2" target="ilbIun8MK31R_7p89Azp-23">
          <mxGeometry relative="1" as="geometry">
            <Array as="points">
              <mxPoint x="255" y="-310" />
            </Array>
          </mxGeometry>
        </mxCell>
        <mxCell id="ilbIun8MK31R_7p89Azp-35" style="edgeStyle=orthogonalEdgeStyle;rounded=0;orthogonalLoop=1;jettySize=auto;html=1;exitX=0.75;exitY=0;exitDx=0;exitDy=0;entryX=0;entryY=0.5;entryDx=0;entryDy=0;" edge="1" parent="1" source="ilbIun8MK31R_7p89Azp-2" target="ilbIun8MK31R_7p89Azp-25">
          <mxGeometry relative="1" as="geometry">
            <Array as="points">
              <mxPoint x="295" y="-60" />
              <mxPoint x="295" y="-250" />
            </Array>
          </mxGeometry>
        </mxCell>
        <mxCell id="ilbIun8MK31R_7p89Azp-36" style="edgeStyle=orthogonalEdgeStyle;rounded=0;orthogonalLoop=1;jettySize=auto;html=1;exitX=1;exitY=0;exitDx=0;exitDy=0;entryX=0;entryY=0.5;entryDx=0;entryDy=0;" edge="1" parent="1" source="ilbIun8MK31R_7p89Azp-2" target="ilbIun8MK31R_7p89Azp-28">
          <mxGeometry relative="1" as="geometry">
            <Array as="points">
              <mxPoint x="315" y="-60" />
              <mxPoint x="315" y="-170" />
            </Array>
          </mxGeometry>
        </mxCell>
        <mxCell id="ilbIun8MK31R_7p89Azp-37" style="edgeStyle=orthogonalEdgeStyle;rounded=0;orthogonalLoop=1;jettySize=auto;html=1;exitX=1;exitY=0.25;exitDx=0;exitDy=0;entryX=0;entryY=0.5;entryDx=0;entryDy=0;" edge="1" parent="1" source="ilbIun8MK31R_7p89Azp-2" target="ilbIun8MK31R_7p89Azp-19">
          <mxGeometry relative="1" as="geometry" />
        </mxCell>
        <mxCell id="ilbIun8MK31R_7p89Azp-38" style="edgeStyle=orthogonalEdgeStyle;rounded=0;orthogonalLoop=1;jettySize=auto;html=1;exitX=1;exitY=0.5;exitDx=0;exitDy=0;entryX=0;entryY=0.5;entryDx=0;entryDy=0;" edge="1" parent="1" source="ilbIun8MK31R_7p89Azp-2" target="ilbIun8MK31R_7p89Azp-20">
          <mxGeometry relative="1" as="geometry" />
        </mxCell>
        <mxCell id="ilbIun8MK31R_7p89Azp-249" style="edgeStyle=orthogonalEdgeStyle;rounded=0;orthogonalLoop=1;jettySize=auto;html=1;exitX=0.25;exitY=1;exitDx=0;exitDy=0;entryX=1;entryY=0.5;entryDx=0;entryDy=0;endArrow=none;startFill=0;" edge="1" parent="1" source="ilbIun8MK31R_7p89Azp-2" target="ilbIun8MK31R_7p89Azp-248">
          <mxGeometry relative="1" as="geometry">
            <Array as="points">
              <mxPoint x="170" />
              <mxPoint x="170" y="110" />
            </Array>
          </mxGeometry>
        </mxCell>
        <mxCell id="ilbIun8MK31R_7p89Azp-253" style="edgeStyle=orthogonalEdgeStyle;rounded=0;orthogonalLoop=1;jettySize=auto;html=1;exitX=0.25;exitY=1;exitDx=0;exitDy=0;entryX=1;entryY=0.5;entryDx=0;entryDy=0;endArrow=none;startFill=0;" edge="1" parent="1" source="ilbIun8MK31R_7p89Azp-2" target="ilbIun8MK31R_7p89Azp-252">
          <mxGeometry relative="1" as="geometry">
            <Array as="points">
              <mxPoint x="180" />
              <mxPoint x="180" y="390" />
            </Array>
          </mxGeometry>
        </mxCell>
        <mxCell id="ilbIun8MK31R_7p89Azp-264" style="edgeStyle=orthogonalEdgeStyle;rounded=0;orthogonalLoop=1;jettySize=auto;html=1;exitX=0.25;exitY=1;exitDx=0;exitDy=0;entryX=1;entryY=0.5;entryDx=0;entryDy=0;endArrow=none;startFill=0;" edge="1" parent="1" source="ilbIun8MK31R_7p89Azp-2" target="ilbIun8MK31R_7p89Azp-265">
          <mxGeometry relative="1" as="geometry">
            <mxPoint x="150" y="615.2000732421875" as="targetPoint" />
          </mxGeometry>
        </mxCell>
        <mxCell id="ilbIun8MK31R_7p89Azp-302" style="edgeStyle=orthogonalEdgeStyle;rounded=0;orthogonalLoop=1;jettySize=auto;html=1;exitX=0.5;exitY=0;exitDx=0;exitDy=0;entryX=0.5;entryY=1;entryDx=0;entryDy=0;" edge="1" parent="1" source="ilbIun8MK31R_7p89Azp-2" target="ilbIun8MK31R_7p89Azp-17">
          <mxGeometry relative="1" as="geometry">
            <Array as="points">
              <mxPoint x="241" y="-60" />
            </Array>
          </mxGeometry>
        </mxCell>
        <mxCell id="ilbIun8MK31R_7p89Azp-304" style="edgeStyle=orthogonalEdgeStyle;rounded=0;orthogonalLoop=1;jettySize=auto;html=1;exitX=0;exitY=0.25;exitDx=0;exitDy=0;entryX=1;entryY=0.5;entryDx=0;entryDy=0;endArrow=none;startFill=0;" edge="1" parent="1" source="ilbIun8MK31R_7p89Azp-2" target="ilbIun8MK31R_7p89Azp-303">
          <mxGeometry relative="1" as="geometry" />
        </mxCell>
        <mxCell id="ilbIun8MK31R_7p89Azp-310" value="" style="edgeStyle=orthogonalEdgeStyle;rounded=0;orthogonalLoop=1;jettySize=auto;html=1;entryX=1;entryY=0.5;entryDx=0;entryDy=0;endArrow=none;startFill=0;" edge="1" parent="1" source="ilbIun8MK31R_7p89Azp-2" target="ilbIun8MK31R_7p89Azp-309">
          <mxGeometry relative="1" as="geometry">
            <Array as="points">
              <mxPoint x="-190" y="-30" />
              <mxPoint x="-190" y="-120" />
            </Array>
          </mxGeometry>
        </mxCell>
        <mxCell id="ilbIun8MK31R_7p89Azp-2" value="&lt;span style=&quot;font-family: monospace; text-align: left;&quot;&gt;user&lt;/span&gt;" style="rounded=0;whiteSpace=wrap;html=1;" vertex="1" parent="1">
          <mxGeometry x="165" y="-60" width="120" height="60" as="geometry" />
        </mxCell>
        <mxCell id="ilbIun8MK31R_7p89Azp-45" style="edgeStyle=orthogonalEdgeStyle;rounded=0;orthogonalLoop=1;jettySize=auto;html=1;exitX=0.25;exitY=0;exitDx=0;exitDy=0;entryX=1;entryY=0.5;entryDx=0;entryDy=0;" edge="1" parent="1" source="ilbIun8MK31R_7p89Azp-3" target="ilbIun8MK31R_7p89Azp-44">
          <mxGeometry relative="1" as="geometry" />
        </mxCell>
        <mxCell id="ilbIun8MK31R_7p89Azp-46" style="edgeStyle=orthogonalEdgeStyle;rounded=0;orthogonalLoop=1;jettySize=auto;html=1;exitX=0.25;exitY=1;exitDx=0;exitDy=0;entryX=1;entryY=0.5;entryDx=0;entryDy=0;" edge="1" parent="1" source="ilbIun8MK31R_7p89Azp-3" target="ilbIun8MK31R_7p89Azp-43">
          <mxGeometry relative="1" as="geometry" />
        </mxCell>
        <mxCell id="ilbIun8MK31R_7p89Azp-47" style="edgeStyle=orthogonalEdgeStyle;rounded=0;orthogonalLoop=1;jettySize=auto;html=1;exitX=0;exitY=1;exitDx=0;exitDy=0;entryX=1;entryY=0.5;entryDx=0;entryDy=0;" edge="1" parent="1" source="ilbIun8MK31R_7p89Azp-3" target="ilbIun8MK31R_7p89Azp-41">
          <mxGeometry relative="1" as="geometry">
            <Array as="points">
              <mxPoint x="-270" y="150" />
            </Array>
          </mxGeometry>
        </mxCell>
        <mxCell id="ilbIun8MK31R_7p89Azp-48" style="edgeStyle=orthogonalEdgeStyle;rounded=0;orthogonalLoop=1;jettySize=auto;html=1;exitX=0;exitY=0;exitDx=0;exitDy=0;entryX=1;entryY=0.5;entryDx=0;entryDy=0;" edge="1" parent="1" source="ilbIun8MK31R_7p89Azp-3" target="ilbIun8MK31R_7p89Azp-40">
          <mxGeometry relative="1" as="geometry" />
        </mxCell>
        <mxCell id="ilbIun8MK31R_7p89Azp-50" style="edgeStyle=orthogonalEdgeStyle;rounded=0;orthogonalLoop=1;jettySize=auto;html=1;exitX=0;exitY=0.5;exitDx=0;exitDy=0;entryX=1;entryY=0.5;entryDx=0;entryDy=0;" edge="1" parent="1" source="ilbIun8MK31R_7p89Azp-3" target="ilbIun8MK31R_7p89Azp-42">
          <mxGeometry relative="1" as="geometry">
            <Array as="points">
              <mxPoint x="-270" y="100" />
            </Array>
          </mxGeometry>
        </mxCell>
        <mxCell id="ilbIun8MK31R_7p89Azp-3" value="&lt;span style=&quot;font-family: monospace; text-align: left;&quot;&gt;mobile_number&lt;/span&gt;" style="rounded=0;whiteSpace=wrap;html=1;" vertex="1" parent="1">
          <mxGeometry x="-270" y="80" width="120" height="60" as="geometry" />
        </mxCell>
        <mxCell id="ilbIun8MK31R_7p89Azp-16" value="last_name" style="ellipse;whiteSpace=wrap;html=1;" vertex="1" parent="1">
          <mxGeometry x="83" y="-330" width="122" height="40" as="geometry" />
        </mxCell>
        <mxCell id="ilbIun8MK31R_7p89Azp-17" value="user_id" style="ellipse;whiteSpace=wrap;html=1;" vertex="1" parent="1">
          <mxGeometry x="181" y="-425" width="120" height="40" as="geometry" />
        </mxCell>
        <mxCell id="ilbIun8MK31R_7p89Azp-18" value="first_name" style="ellipse;whiteSpace=wrap;html=1;" vertex="1" parent="1">
          <mxGeometry x="-5" y="-150" width="120" height="40" as="geometry" />
        </mxCell>
        <mxCell id="ilbIun8MK31R_7p89Azp-19" value="email" style="ellipse;whiteSpace=wrap;html=1;" vertex="1" parent="1">
          <mxGeometry x="385" y="-120" width="120" height="40" as="geometry" />
        </mxCell>
        <mxCell id="ilbIun8MK31R_7p89Azp-20" value="password" style="ellipse;whiteSpace=wrap;html=1;" vertex="1" parent="1">
          <mxGeometry x="385" y="-50" width="120" height="40" as="geometry" />
        </mxCell>
        <mxCell id="ilbIun8MK31R_7p89Azp-22" value="&lt;code data-end=&quot;301&quot; data-start=&quot;287&quot;&gt;user_type_id&lt;/code&gt;&amp;nbsp;" style="ellipse;whiteSpace=wrap;html=1;" vertex="1" parent="1">
          <mxGeometry x="-5" y="-210" width="120" height="40" as="geometry" />
        </mxCell>
        <mxCell id="ilbIun8MK31R_7p89Azp-23" value="mobile_id" style="ellipse;whiteSpace=wrap;html=1;" vertex="1" parent="1">
          <mxGeometry x="265" y="-330" width="120" height="40" as="geometry" />
        </mxCell>
        <mxCell id="ilbIun8MK31R_7p89Azp-25" value="status" style="ellipse;whiteSpace=wrap;html=1;" vertex="1" parent="1">
          <mxGeometry x="375" y="-270" width="120" height="40" as="geometry" />
        </mxCell>
        <mxCell id="ilbIun8MK31R_7p89Azp-26" value="isEmailVerified" style="ellipse;whiteSpace=wrap;html=1;" vertex="1" parent="1">
          <mxGeometry x="5" y="-270" width="120" height="40" as="geometry" />
        </mxCell>
        <mxCell id="ilbIun8MK31R_7p89Azp-28" value="registered_date" style="ellipse;whiteSpace=wrap;html=1;" vertex="1" parent="1">
          <mxGeometry x="385" y="-190" width="120" height="40" as="geometry" />
        </mxCell>
        <mxCell id="ilbIun8MK31R_7p89Azp-40" value="mobile_no" style="ellipse;whiteSpace=wrap;html=1;" vertex="1" parent="1">
          <mxGeometry x="-430" y="30" width="120" height="40" as="geometry" />
        </mxCell>
        <mxCell id="ilbIun8MK31R_7p89Azp-41" value="otp_datetime" style="ellipse;whiteSpace=wrap;html=1;" vertex="1" parent="1">
          <mxGeometry x="-430" y="130" width="120" height="40" as="geometry" />
        </mxCell>
        <mxCell id="ilbIun8MK31R_7p89Azp-42" value="&lt;code data-end=&quot;603&quot; data-start=&quot;598&quot;&gt;otp&lt;/code&gt;" style="ellipse;whiteSpace=wrap;html=1;" vertex="1" parent="1">
          <mxGeometry x="-430" y="80" width="120" height="40" as="geometry" />
        </mxCell>
        <mxCell id="ilbIun8MK31R_7p89Azp-43" value="isOtpVerified" style="ellipse;whiteSpace=wrap;html=1;" vertex="1" parent="1">
          <mxGeometry x="-430" y="190" width="120" height="40" as="geometry" />
        </mxCell>
        <mxCell id="ilbIun8MK31R_7p89Azp-44" value="mobile_id" style="ellipse;whiteSpace=wrap;html=1;" vertex="1" parent="1">
          <mxGeometry x="-430" y="-20" width="120" height="40" as="geometry" />
        </mxCell>
        <mxCell id="ilbIun8MK31R_7p89Azp-75" style="edgeStyle=orthogonalEdgeStyle;rounded=0;orthogonalLoop=1;jettySize=auto;html=1;exitX=0;exitY=1;exitDx=0;exitDy=0;entryX=1;entryY=0.5;entryDx=0;entryDy=0;" edge="1" parent="1" source="ilbIun8MK31R_7p89Azp-78" target="ilbIun8MK31R_7p89Azp-80">
          <mxGeometry relative="1" as="geometry">
            <Array as="points">
              <mxPoint x="-270" y="440" />
            </Array>
          </mxGeometry>
        </mxCell>
        <mxCell id="ilbIun8MK31R_7p89Azp-76" style="edgeStyle=orthogonalEdgeStyle;rounded=0;orthogonalLoop=1;jettySize=auto;html=1;exitX=0;exitY=0;exitDx=0;exitDy=0;entryX=1;entryY=0.5;entryDx=0;entryDy=0;" edge="1" parent="1" source="ilbIun8MK31R_7p89Azp-78" target="ilbIun8MK31R_7p89Azp-79">
          <mxGeometry relative="1" as="geometry" />
        </mxCell>
        <mxCell id="ilbIun8MK31R_7p89Azp-78" value="user_type" style="rounded=0;whiteSpace=wrap;html=1;" vertex="1" parent="1">
          <mxGeometry x="-270" y="360" width="120" height="60" as="geometry" />
        </mxCell>
        <mxCell id="ilbIun8MK31R_7p89Azp-79" value="user_type_id" style="ellipse;whiteSpace=wrap;html=1;" vertex="1" parent="1">
          <mxGeometry x="-430" y="320" width="120" height="40" as="geometry" />
        </mxCell>
        <mxCell id="ilbIun8MK31R_7p89Azp-80" value="description" style="ellipse;whiteSpace=wrap;html=1;" vertex="1" parent="1">
          <mxGeometry x="-430" y="420" width="120" height="40" as="geometry" />
        </mxCell>
        <mxCell id="ilbIun8MK31R_7p89Azp-84" style="edgeStyle=orthogonalEdgeStyle;rounded=0;orthogonalLoop=1;jettySize=auto;html=1;exitX=0.25;exitY=0;exitDx=0;exitDy=0;entryX=1;entryY=0.5;entryDx=0;entryDy=0;" edge="1" parent="1" source="ilbIun8MK31R_7p89Azp-89" target="ilbIun8MK31R_7p89Azp-94">
          <mxGeometry relative="1" as="geometry" />
        </mxCell>
        <mxCell id="ilbIun8MK31R_7p89Azp-85" style="edgeStyle=orthogonalEdgeStyle;rounded=0;orthogonalLoop=1;jettySize=auto;html=1;exitX=0.25;exitY=1;exitDx=0;exitDy=0;entryX=1;entryY=0.5;entryDx=0;entryDy=0;" edge="1" parent="1" source="ilbIun8MK31R_7p89Azp-89" target="ilbIun8MK31R_7p89Azp-93">
          <mxGeometry relative="1" as="geometry">
            <Array as="points">
              <mxPoint x="180" y="1000" />
              <mxPoint x="180" y="1070" />
            </Array>
          </mxGeometry>
        </mxCell>
        <mxCell id="ilbIun8MK31R_7p89Azp-86" style="edgeStyle=orthogonalEdgeStyle;rounded=0;orthogonalLoop=1;jettySize=auto;html=1;exitX=0;exitY=1;exitDx=0;exitDy=0;entryX=1;entryY=0.5;entryDx=0;entryDy=0;" edge="1" parent="1" source="ilbIun8MK31R_7p89Azp-89" target="ilbIun8MK31R_7p89Azp-91">
          <mxGeometry relative="1" as="geometry">
            <Array as="points">
              <mxPoint x="161" y="1010" />
            </Array>
          </mxGeometry>
        </mxCell>
        <mxCell id="ilbIun8MK31R_7p89Azp-87" style="edgeStyle=orthogonalEdgeStyle;rounded=0;orthogonalLoop=1;jettySize=auto;html=1;exitX=0;exitY=0;exitDx=0;exitDy=0;entryX=1;entryY=0.5;entryDx=0;entryDy=0;" edge="1" parent="1" source="ilbIun8MK31R_7p89Azp-89" target="ilbIun8MK31R_7p89Azp-90">
          <mxGeometry relative="1" as="geometry" />
        </mxCell>
        <mxCell id="ilbIun8MK31R_7p89Azp-88" style="edgeStyle=orthogonalEdgeStyle;rounded=0;orthogonalLoop=1;jettySize=auto;html=1;exitX=0;exitY=0.5;exitDx=0;exitDy=0;entryX=1;entryY=0.5;entryDx=0;entryDy=0;" edge="1" parent="1" source="ilbIun8MK31R_7p89Azp-89" target="ilbIun8MK31R_7p89Azp-92">
          <mxGeometry relative="1" as="geometry">
            <Array as="points">
              <mxPoint x="161" y="960" />
            </Array>
          </mxGeometry>
        </mxCell>
        <mxCell id="ilbIun8MK31R_7p89Azp-100" style="edgeStyle=orthogonalEdgeStyle;rounded=0;orthogonalLoop=1;jettySize=auto;html=1;exitX=0.75;exitY=0;exitDx=0;exitDy=0;entryX=0;entryY=0.5;entryDx=0;entryDy=0;" edge="1" parent="1" target="ilbIun8MK31R_7p89Azp-99">
          <mxGeometry relative="1" as="geometry">
            <mxPoint x="303.75" y="940" as="sourcePoint" />
          </mxGeometry>
        </mxCell>
        <mxCell id="ilbIun8MK31R_7p89Azp-102" style="edgeStyle=orthogonalEdgeStyle;rounded=0;orthogonalLoop=1;jettySize=auto;html=1;exitX=1;exitY=1;exitDx=0;exitDy=0;entryX=0;entryY=0.5;entryDx=0;entryDy=0;" edge="1" parent="1" target="ilbIun8MK31R_7p89Azp-96">
          <mxGeometry relative="1" as="geometry">
            <mxPoint x="351" y="1000" as="sourcePoint" />
          </mxGeometry>
        </mxCell>
        <mxCell id="ilbIun8MK31R_7p89Azp-103" style="edgeStyle=orthogonalEdgeStyle;rounded=0;orthogonalLoop=1;jettySize=auto;html=1;exitX=1;exitY=0.5;exitDx=0;exitDy=0;entryX=0;entryY=0.5;entryDx=0;entryDy=0;" edge="1" parent="1" target="ilbIun8MK31R_7p89Azp-97">
          <mxGeometry relative="1" as="geometry">
            <mxPoint x="351" y="970" as="sourcePoint" />
          </mxGeometry>
        </mxCell>
        <mxCell id="ilbIun8MK31R_7p89Azp-106" style="edgeStyle=orthogonalEdgeStyle;rounded=0;orthogonalLoop=1;jettySize=auto;html=1;exitX=0.5;exitY=1;exitDx=0;exitDy=0;entryX=0;entryY=0.5;entryDx=0;entryDy=0;" edge="1" parent="1" source="ilbIun8MK31R_7p89Azp-89" target="ilbIun8MK31R_7p89Azp-105">
          <mxGeometry relative="1" as="geometry">
            <Array as="points">
              <mxPoint x="320" y="1000" />
              <mxPoint x="320" y="1110" />
            </Array>
          </mxGeometry>
        </mxCell>
        <mxCell id="ilbIun8MK31R_7p89Azp-262" style="edgeStyle=orthogonalEdgeStyle;rounded=0;orthogonalLoop=1;jettySize=auto;html=1;exitX=0.25;exitY=1;exitDx=0;exitDy=0;entryX=1;entryY=0.5;entryDx=0;entryDy=0;endArrow=none;startFill=0;" edge="1" parent="1" source="ilbIun8MK31R_7p89Azp-89" target="ilbIun8MK31R_7p89Azp-261">
          <mxGeometry relative="1" as="geometry" />
        </mxCell>
        <mxCell id="ilbIun8MK31R_7p89Azp-267" style="edgeStyle=orthogonalEdgeStyle;rounded=0;orthogonalLoop=1;jettySize=auto;html=1;exitX=0.5;exitY=0;exitDx=0;exitDy=0;entryX=1;entryY=0.5;entryDx=0;entryDy=0;endArrow=none;startFill=0;" edge="1" parent="1" source="ilbIun8MK31R_7p89Azp-89" target="ilbIun8MK31R_7p89Azp-268">
          <mxGeometry relative="1" as="geometry">
            <mxPoint x="150" y="730" as="targetPoint" />
            <Array as="points">
              <mxPoint x="200" y="940" />
              <mxPoint x="200" y="750" />
            </Array>
          </mxGeometry>
        </mxCell>
        <mxCell id="ilbIun8MK31R_7p89Azp-278" style="edgeStyle=orthogonalEdgeStyle;rounded=0;orthogonalLoop=1;jettySize=auto;html=1;exitX=1;exitY=1;exitDx=0;exitDy=0;entryX=0;entryY=0.5;entryDx=0;entryDy=0;" edge="1" parent="1" source="ilbIun8MK31R_7p89Azp-89" target="ilbIun8MK31R_7p89Azp-98">
          <mxGeometry relative="1" as="geometry" />
        </mxCell>
        <mxCell id="ilbIun8MK31R_7p89Azp-89" value=" vehicles" style="rounded=0;whiteSpace=wrap;html=1;" vertex="1" parent="1">
          <mxGeometry x="161" y="940" width="189" height="60" as="geometry" />
        </mxCell>
        <mxCell id="ilbIun8MK31R_7p89Azp-90" value="user_id" style="ellipse;whiteSpace=wrap;html=1;" vertex="1" parent="1">
          <mxGeometry x="1" y="890" width="120" height="40" as="geometry" />
        </mxCell>
        <mxCell id="ilbIun8MK31R_7p89Azp-91" value="vehicle_brand_id" style="ellipse;whiteSpace=wrap;html=1;" vertex="1" parent="1">
          <mxGeometry x="1" y="990" width="120" height="40" as="geometry" />
        </mxCell>
        <mxCell id="ilbIun8MK31R_7p89Azp-92" value="vehicle_type_id" style="ellipse;whiteSpace=wrap;html=1;" vertex="1" parent="1">
          <mxGeometry x="1" y="940" width="120" height="40" as="geometry" />
        </mxCell>
        <mxCell id="ilbIun8MK31R_7p89Azp-93" value="model" style="ellipse;whiteSpace=wrap;html=1;" vertex="1" parent="1">
          <mxGeometry x="1" y="1050" width="120" height="40" as="geometry" />
        </mxCell>
        <mxCell id="ilbIun8MK31R_7p89Azp-94" value="license_plate" style="ellipse;whiteSpace=wrap;html=1;" vertex="1" parent="1">
          <mxGeometry x="1" y="840" width="120" height="40" as="geometry" />
        </mxCell>
        <mxCell id="ilbIun8MK31R_7p89Azp-95" value="make_year" style="ellipse;whiteSpace=wrap;html=1;" vertex="1" parent="1">
          <mxGeometry x="400" y="875" width="120" height="40" as="geometry" />
        </mxCell>
        <mxCell id="ilbIun8MK31R_7p89Azp-96" value="fuel_type" style="ellipse;whiteSpace=wrap;html=1;" vertex="1" parent="1">
          <mxGeometry x="400" y="980" width="120" height="40" as="geometry" />
        </mxCell>
        <mxCell id="ilbIun8MK31R_7p89Azp-97" value="engine_capacity" style="ellipse;whiteSpace=wrap;html=1;" vertex="1" parent="1">
          <mxGeometry x="400" y="930" width="120" height="40" as="geometry" />
        </mxCell>
        <mxCell id="ilbIun8MK31R_7p89Azp-98" value="transmission_type" style="ellipse;whiteSpace=wrap;html=1;" vertex="1" parent="1">
          <mxGeometry x="400" y="1040" width="120" height="40" as="geometry" />
        </mxCell>
        <mxCell id="ilbIun8MK31R_7p89Azp-99" value="color" style="ellipse;whiteSpace=wrap;html=1;" vertex="1" parent="1">
          <mxGeometry x="400" y="825" width="120" height="40" as="geometry" />
        </mxCell>
        <mxCell id="ilbIun8MK31R_7p89Azp-104" style="edgeStyle=orthogonalEdgeStyle;rounded=0;orthogonalLoop=1;jettySize=auto;html=1;exitX=1;exitY=0;exitDx=0;exitDy=0;entryX=0;entryY=0.5;entryDx=0;entryDy=0;" edge="1" parent="1" target="ilbIun8MK31R_7p89Azp-95">
          <mxGeometry relative="1" as="geometry">
            <mxPoint x="351" y="940" as="sourcePoint" />
          </mxGeometry>
        </mxCell>
        <mxCell id="ilbIun8MK31R_7p89Azp-105" value="status" style="ellipse;whiteSpace=wrap;html=1;" vertex="1" parent="1">
          <mxGeometry x="400" y="1090" width="120" height="40" as="geometry" />
        </mxCell>
        <mxCell id="ilbIun8MK31R_7p89Azp-110" style="edgeStyle=orthogonalEdgeStyle;rounded=0;orthogonalLoop=1;jettySize=auto;html=1;exitX=0;exitY=0;exitDx=0;exitDy=0;entryX=1;entryY=0.5;entryDx=0;entryDy=0;" edge="1" parent="1" source="ilbIun8MK31R_7p89Azp-112" target="ilbIun8MK31R_7p89Azp-113">
          <mxGeometry relative="1" as="geometry" />
        </mxCell>
        <mxCell id="ilbIun8MK31R_7p89Azp-111" style="edgeStyle=orthogonalEdgeStyle;rounded=0;orthogonalLoop=1;jettySize=auto;html=1;exitX=0;exitY=0.5;exitDx=0;exitDy=0;entryX=1;entryY=0.5;entryDx=0;entryDy=0;" edge="1" parent="1" source="ilbIun8MK31R_7p89Azp-112" target="ilbIun8MK31R_7p89Azp-115">
          <mxGeometry relative="1" as="geometry">
            <Array as="points">
              <mxPoint x="165" y="1500" />
            </Array>
          </mxGeometry>
        </mxCell>
        <mxCell id="ilbIun8MK31R_7p89Azp-112" value="IS OF TYPE" style="rounded=0;whiteSpace=wrap;html=1;" vertex="1" parent="1">
          <mxGeometry x="165" y="1380" width="120" height="60" as="geometry" />
        </mxCell>
        <mxCell id="ilbIun8MK31R_7p89Azp-113" value="vehicle_type_id" style="ellipse;whiteSpace=wrap;html=1;" vertex="1" parent="1">
          <mxGeometry x="5" y="1335" width="120" height="40" as="geometry" />
        </mxCell>
        <mxCell id="ilbIun8MK31R_7p89Azp-115" value="vehicle_type" style="ellipse;whiteSpace=wrap;html=1;" vertex="1" parent="1">
          <mxGeometry x="1" y="1480" width="120" height="40" as="geometry" />
        </mxCell>
        <mxCell id="ilbIun8MK31R_7p89Azp-119" style="edgeStyle=orthogonalEdgeStyle;rounded=0;orthogonalLoop=1;jettySize=auto;html=1;exitX=0;exitY=0;exitDx=0;exitDy=0;entryX=1;entryY=0.5;entryDx=0;entryDy=0;" edge="1" parent="1" source="ilbIun8MK31R_7p89Azp-121" target="ilbIun8MK31R_7p89Azp-122">
          <mxGeometry relative="1" as="geometry" />
        </mxCell>
        <mxCell id="ilbIun8MK31R_7p89Azp-120" style="edgeStyle=orthogonalEdgeStyle;rounded=0;orthogonalLoop=1;jettySize=auto;html=1;exitX=0;exitY=0.5;exitDx=0;exitDy=0;entryX=1;entryY=0.5;entryDx=0;entryDy=0;" edge="1" parent="1" source="ilbIun8MK31R_7p89Azp-121" target="ilbIun8MK31R_7p89Azp-123">
          <mxGeometry relative="1" as="geometry">
            <Array as="points">
              <mxPoint x="-270" y="1225" />
            </Array>
          </mxGeometry>
        </mxCell>
        <mxCell id="ilbIun8MK31R_7p89Azp-121" value=" vehicle_brand" style="rounded=0;whiteSpace=wrap;html=1;" vertex="1" parent="1">
          <mxGeometry x="-270" y="1155" width="120" height="60" as="geometry" />
        </mxCell>
        <mxCell id="ilbIun8MK31R_7p89Azp-122" value="vehicle_brand_id" style="ellipse;whiteSpace=wrap;html=1;" vertex="1" parent="1">
          <mxGeometry x="-430" y="1115" width="120" height="40" as="geometry" />
        </mxCell>
        <mxCell id="ilbIun8MK31R_7p89Azp-123" value="vehicle_brand" style="ellipse;whiteSpace=wrap;html=1;" vertex="1" parent="1">
          <mxGeometry x="-430" y="1205" width="120" height="40" as="geometry" />
        </mxCell>
        <mxCell id="ilbIun8MK31R_7p89Azp-146" style="edgeStyle=orthogonalEdgeStyle;rounded=0;orthogonalLoop=1;jettySize=auto;html=1;exitX=0.25;exitY=0;exitDx=0;exitDy=0;entryX=1;entryY=0.5;entryDx=0;entryDy=0;" edge="1" parent="1" source="ilbIun8MK31R_7p89Azp-151" target="ilbIun8MK31R_7p89Azp-156">
          <mxGeometry relative="1" as="geometry" />
        </mxCell>
        <mxCell id="ilbIun8MK31R_7p89Azp-147" style="edgeStyle=orthogonalEdgeStyle;rounded=0;orthogonalLoop=1;jettySize=auto;html=1;exitX=0.25;exitY=1;exitDx=0;exitDy=0;entryX=1;entryY=0.5;entryDx=0;entryDy=0;" edge="1" parent="1" source="ilbIun8MK31R_7p89Azp-151" target="ilbIun8MK31R_7p89Azp-155">
          <mxGeometry relative="1" as="geometry" />
        </mxCell>
        <mxCell id="ilbIun8MK31R_7p89Azp-148" style="edgeStyle=orthogonalEdgeStyle;rounded=0;orthogonalLoop=1;jettySize=auto;html=1;exitX=0;exitY=1;exitDx=0;exitDy=0;entryX=1;entryY=0.5;entryDx=0;entryDy=0;" edge="1" parent="1" source="ilbIun8MK31R_7p89Azp-151" target="ilbIun8MK31R_7p89Azp-153">
          <mxGeometry relative="1" as="geometry">
            <Array as="points">
              <mxPoint x="-260" y="750" />
            </Array>
          </mxGeometry>
        </mxCell>
        <mxCell id="ilbIun8MK31R_7p89Azp-149" style="edgeStyle=orthogonalEdgeStyle;rounded=0;orthogonalLoop=1;jettySize=auto;html=1;exitX=0;exitY=0;exitDx=0;exitDy=0;entryX=1;entryY=0.5;entryDx=0;entryDy=0;" edge="1" parent="1" source="ilbIun8MK31R_7p89Azp-151" target="ilbIun8MK31R_7p89Azp-152">
          <mxGeometry relative="1" as="geometry" />
        </mxCell>
        <mxCell id="ilbIun8MK31R_7p89Azp-150" style="edgeStyle=orthogonalEdgeStyle;rounded=0;orthogonalLoop=1;jettySize=auto;html=1;exitX=0;exitY=0.5;exitDx=0;exitDy=0;entryX=1;entryY=0.5;entryDx=0;entryDy=0;" edge="1" parent="1" source="ilbIun8MK31R_7p89Azp-151" target="ilbIun8MK31R_7p89Azp-154">
          <mxGeometry relative="1" as="geometry">
            <Array as="points">
              <mxPoint x="-260" y="640" />
            </Array>
          </mxGeometry>
        </mxCell>
        <mxCell id="ilbIun8MK31R_7p89Azp-158" style="edgeStyle=orthogonalEdgeStyle;rounded=0;orthogonalLoop=1;jettySize=auto;html=1;exitX=0.5;exitY=1;exitDx=0;exitDy=0;entryX=1;entryY=0.5;entryDx=0;entryDy=0;" edge="1" parent="1" source="ilbIun8MK31R_7p89Azp-151" target="ilbIun8MK31R_7p89Azp-157">
          <mxGeometry relative="1" as="geometry" />
        </mxCell>
        <mxCell id="ilbIun8MK31R_7p89Azp-272" style="edgeStyle=orthogonalEdgeStyle;rounded=0;orthogonalLoop=1;jettySize=auto;html=1;exitX=0.5;exitY=0;exitDx=0;exitDy=0;entryX=0;entryY=0.5;entryDx=0;entryDy=0;endArrow=none;startFill=0;" edge="1" parent="1" source="ilbIun8MK31R_7p89Azp-151" target="ilbIun8MK31R_7p89Azp-271">
          <mxGeometry relative="1" as="geometry" />
        </mxCell>
        <mxCell id="ilbIun8MK31R_7p89Azp-316" style="edgeStyle=orthogonalEdgeStyle;rounded=0;orthogonalLoop=1;jettySize=auto;html=1;exitX=0;exitY=1;exitDx=0;exitDy=0;entryX=0.5;entryY=1;entryDx=0;entryDy=0;endArrow=none;startFill=0;" edge="1" parent="1" source="ilbIun8MK31R_7p89Azp-151" target="ilbIun8MK31R_7p89Azp-317">
          <mxGeometry relative="1" as="geometry">
            <mxPoint x="-530" y="-330" as="targetPoint" />
            <Array as="points">
              <mxPoint x="-260" y="670" />
              <mxPoint x="-590" y="670" />
            </Array>
          </mxGeometry>
        </mxCell>
        <mxCell id="ilbIun8MK31R_7p89Azp-151" value=" reservations" style="rounded=0;whiteSpace=wrap;html=1;" vertex="1" parent="1">
          <mxGeometry x="-260" y="620" width="120" height="60" as="geometry" />
        </mxCell>
        <mxCell id="ilbIun8MK31R_7p89Azp-152" value="vehicle_id" style="ellipse;whiteSpace=wrap;html=1;" vertex="1" parent="1">
          <mxGeometry x="-420" y="570" width="120" height="40" as="geometry" />
        </mxCell>
        <mxCell id="ilbIun8MK31R_7p89Azp-153" value="reserve_date" style="ellipse;whiteSpace=wrap;html=1;" vertex="1" parent="1">
          <mxGeometry x="-420" y="730" width="120" height="40" as="geometry" />
        </mxCell>
        <mxCell id="ilbIun8MK31R_7p89Azp-154" value="service_type_id" style="ellipse;whiteSpace=wrap;html=1;" vertex="1" parent="1">
          <mxGeometry x="-420" y="620" width="120" height="40" as="geometry" />
        </mxCell>
        <mxCell id="ilbIun8MK31R_7p89Azp-155" value="start_time" style="ellipse;whiteSpace=wrap;html=1;" vertex="1" parent="1">
          <mxGeometry x="-420" y="785" width="120" height="40" as="geometry" />
        </mxCell>
        <mxCell id="ilbIun8MK31R_7p89Azp-156" value="reservation_id" style="ellipse;whiteSpace=wrap;html=1;" vertex="1" parent="1">
          <mxGeometry x="-420" y="520" width="120" height="40" as="geometry" />
        </mxCell>
        <mxCell id="ilbIun8MK31R_7p89Azp-157" value="end_time" style="ellipse;whiteSpace=wrap;html=1;" vertex="1" parent="1">
          <mxGeometry x="-420" y="840" width="120" height="40" as="geometry" />
        </mxCell>
        <mxCell id="ilbIun8MK31R_7p89Azp-159" style="edgeStyle=orthogonalEdgeStyle;rounded=0;orthogonalLoop=1;jettySize=auto;html=1;exitX=0.25;exitY=0;exitDx=0;exitDy=0;entryX=0;entryY=0.5;entryDx=0;entryDy=0;" edge="1" parent="1" source="ilbIun8MK31R_7p89Azp-164" target="ilbIun8MK31R_7p89Azp-169">
          <mxGeometry relative="1" as="geometry" />
        </mxCell>
        <mxCell id="ilbIun8MK31R_7p89Azp-160" style="edgeStyle=orthogonalEdgeStyle;rounded=0;orthogonalLoop=1;jettySize=auto;html=1;exitX=0.25;exitY=1;exitDx=0;exitDy=0;entryX=0;entryY=0.5;entryDx=0;entryDy=0;" edge="1" parent="1" source="ilbIun8MK31R_7p89Azp-164" target="ilbIun8MK31R_7p89Azp-168">
          <mxGeometry relative="1" as="geometry" />
        </mxCell>
        <mxCell id="ilbIun8MK31R_7p89Azp-161" style="edgeStyle=orthogonalEdgeStyle;rounded=0;orthogonalLoop=1;jettySize=auto;html=1;exitX=0.75;exitY=1;exitDx=0;exitDy=0;entryX=0;entryY=0.5;entryDx=0;entryDy=0;" edge="1" parent="1" source="ilbIun8MK31R_7p89Azp-164" target="ilbIun8MK31R_7p89Azp-166">
          <mxGeometry relative="1" as="geometry">
            <Array as="points">
              <mxPoint x="810" y="540" />
              <mxPoint x="810" y="550" />
            </Array>
          </mxGeometry>
        </mxCell>
        <mxCell id="ilbIun8MK31R_7p89Azp-162" style="edgeStyle=orthogonalEdgeStyle;rounded=0;orthogonalLoop=1;jettySize=auto;html=1;exitX=0;exitY=0;exitDx=0;exitDy=0;entryX=0;entryY=0.5;entryDx=0;entryDy=0;" edge="1" parent="1" source="ilbIun8MK31R_7p89Azp-164" target="ilbIun8MK31R_7p89Azp-165">
          <mxGeometry relative="1" as="geometry">
            <Array as="points">
              <mxPoint x="810" y="480" />
              <mxPoint x="810" y="450" />
            </Array>
          </mxGeometry>
        </mxCell>
        <mxCell id="ilbIun8MK31R_7p89Azp-163" style="edgeStyle=orthogonalEdgeStyle;rounded=0;orthogonalLoop=1;jettySize=auto;html=1;exitX=0;exitY=0.5;exitDx=0;exitDy=0;entryX=0;entryY=0.5;entryDx=0;entryDy=0;" edge="1" parent="1" source="ilbIun8MK31R_7p89Azp-164" target="ilbIun8MK31R_7p89Azp-167">
          <mxGeometry relative="1" as="geometry">
            <Array as="points">
              <mxPoint x="740" y="500" />
            </Array>
          </mxGeometry>
        </mxCell>
        <mxCell id="ilbIun8MK31R_7p89Azp-164" value="service_type" style="rounded=0;whiteSpace=wrap;html=1;" vertex="1" parent="1">
          <mxGeometry x="740" y="480" width="120" height="60" as="geometry" />
        </mxCell>
        <mxCell id="ilbIun8MK31R_7p89Azp-165" value="&lt;code data-end=&quot;1852&quot; data-start=&quot;1838&quot;&gt;service_name&lt;/code&gt;" style="ellipse;whiteSpace=wrap;html=1;" vertex="1" parent="1">
          <mxGeometry x="920" y="430" width="120" height="40" as="geometry" />
        </mxCell>
        <mxCell id="ilbIun8MK31R_7p89Azp-166" value="description" style="ellipse;whiteSpace=wrap;html=1;" vertex="1" parent="1">
          <mxGeometry x="920" y="530" width="120" height="40" as="geometry" />
        </mxCell>
        <mxCell id="ilbIun8MK31R_7p89Azp-167" value="price" style="ellipse;whiteSpace=wrap;html=1;" vertex="1" parent="1">
          <mxGeometry x="920" y="480" width="120" height="40" as="geometry" />
        </mxCell>
        <mxCell id="ilbIun8MK31R_7p89Azp-168" value="duration" style="ellipse;whiteSpace=wrap;html=1;" vertex="1" parent="1">
          <mxGeometry x="920" y="590" width="120" height="40" as="geometry" />
        </mxCell>
        <mxCell id="ilbIun8MK31R_7p89Azp-169" value="service_type_id" style="ellipse;whiteSpace=wrap;html=1;" vertex="1" parent="1">
          <mxGeometry x="920" y="380" width="120" height="40" as="geometry" />
        </mxCell>
        <mxCell id="ilbIun8MK31R_7p89Azp-178" style="edgeStyle=orthogonalEdgeStyle;rounded=0;orthogonalLoop=1;jettySize=auto;html=1;exitX=0.25;exitY=0;exitDx=0;exitDy=0;entryX=0;entryY=0.5;entryDx=0;entryDy=0;" edge="1" parent="1" source="ilbIun8MK31R_7p89Azp-183" target="ilbIun8MK31R_7p89Azp-188">
          <mxGeometry relative="1" as="geometry" />
        </mxCell>
        <mxCell id="ilbIun8MK31R_7p89Azp-179" style="edgeStyle=orthogonalEdgeStyle;rounded=0;orthogonalLoop=1;jettySize=auto;html=1;exitX=0.25;exitY=1;exitDx=0;exitDy=0;entryX=0;entryY=0.5;entryDx=0;entryDy=0;" edge="1" parent="1" source="ilbIun8MK31R_7p89Azp-183" target="ilbIun8MK31R_7p89Azp-187">
          <mxGeometry relative="1" as="geometry">
            <Array as="points">
              <mxPoint x="790" y="210" />
              <mxPoint x="790" y="265" />
            </Array>
          </mxGeometry>
        </mxCell>
        <mxCell id="ilbIun8MK31R_7p89Azp-180" style="edgeStyle=orthogonalEdgeStyle;rounded=0;orthogonalLoop=1;jettySize=auto;html=1;exitX=0.75;exitY=1;exitDx=0;exitDy=0;entryX=0;entryY=0.5;entryDx=0;entryDy=0;" edge="1" parent="1" source="ilbIun8MK31R_7p89Azp-183" target="ilbIun8MK31R_7p89Azp-185">
          <mxGeometry relative="1" as="geometry">
            <Array as="points">
              <mxPoint x="810" y="210" />
              <mxPoint x="810" y="220" />
            </Array>
          </mxGeometry>
        </mxCell>
        <mxCell id="ilbIun8MK31R_7p89Azp-181" style="edgeStyle=orthogonalEdgeStyle;rounded=0;orthogonalLoop=1;jettySize=auto;html=1;exitX=0;exitY=0;exitDx=0;exitDy=0;entryX=0;entryY=0.5;entryDx=0;entryDy=0;" edge="1" parent="1" source="ilbIun8MK31R_7p89Azp-183" target="ilbIun8MK31R_7p89Azp-184">
          <mxGeometry relative="1" as="geometry">
            <Array as="points">
              <mxPoint x="810" y="150" />
              <mxPoint x="810" y="120" />
            </Array>
          </mxGeometry>
        </mxCell>
        <mxCell id="ilbIun8MK31R_7p89Azp-182" style="edgeStyle=orthogonalEdgeStyle;rounded=0;orthogonalLoop=1;jettySize=auto;html=1;exitX=0;exitY=0.5;exitDx=0;exitDy=0;entryX=0;entryY=0.5;entryDx=0;entryDy=0;" edge="1" parent="1" source="ilbIun8MK31R_7p89Azp-183" target="ilbIun8MK31R_7p89Azp-186">
          <mxGeometry relative="1" as="geometry">
            <Array as="points">
              <mxPoint x="740" y="170" />
            </Array>
          </mxGeometry>
        </mxCell>
        <mxCell id="ilbIun8MK31R_7p89Azp-190" style="edgeStyle=orthogonalEdgeStyle;rounded=0;orthogonalLoop=1;jettySize=auto;html=1;exitX=0.25;exitY=1;exitDx=0;exitDy=0;entryX=0;entryY=0.5;entryDx=0;entryDy=0;" edge="1" parent="1" source="ilbIun8MK31R_7p89Azp-183" target="ilbIun8MK31R_7p89Azp-189">
          <mxGeometry relative="1" as="geometry" />
        </mxCell>
        <mxCell id="ilbIun8MK31R_7p89Azp-280" style="edgeStyle=orthogonalEdgeStyle;rounded=0;orthogonalLoop=1;jettySize=auto;html=1;exitX=0;exitY=0.75;exitDx=0;exitDy=0;entryX=0.5;entryY=0;entryDx=0;entryDy=0;endArrow=none;startFill=0;" edge="1" parent="1" source="ilbIun8MK31R_7p89Azp-183" target="ilbIun8MK31R_7p89Azp-279">
          <mxGeometry relative="1" as="geometry" />
        </mxCell>
        <mxCell id="ilbIun8MK31R_7p89Azp-183" value="service_records" style="rounded=0;whiteSpace=wrap;html=1;" vertex="1" parent="1">
          <mxGeometry x="740" y="150" width="120" height="60" as="geometry" />
        </mxCell>
        <mxCell id="ilbIun8MK31R_7p89Azp-184" value="&lt;code data-end=&quot;1852&quot; data-start=&quot;1838&quot;&gt;license_plate&lt;/code&gt;" style="ellipse;whiteSpace=wrap;html=1;" vertex="1" parent="1">
          <mxGeometry x="920" y="100" width="120" height="40" as="geometry" />
        </mxCell>
        <mxCell id="ilbIun8MK31R_7p89Azp-185" value="service_datetime" style="ellipse;whiteSpace=wrap;html=1;" vertex="1" parent="1">
          <mxGeometry x="920" y="200" width="120" height="40" as="geometry" />
        </mxCell>
        <mxCell id="ilbIun8MK31R_7p89Azp-186" value="service_type_id" style="ellipse;whiteSpace=wrap;html=1;" vertex="1" parent="1">
          <mxGeometry x="920" y="150" width="120" height="40" as="geometry" />
        </mxCell>
        <mxCell id="ilbIun8MK31R_7p89Azp-187" value="description" style="ellipse;whiteSpace=wrap;html=1;" vertex="1" parent="1">
          <mxGeometry x="920" y="245" width="120" height="40" as="geometry" />
        </mxCell>
        <mxCell id="ilbIun8MK31R_7p89Azp-188" value="service_record_id" style="ellipse;whiteSpace=wrap;html=1;" vertex="1" parent="1">
          <mxGeometry x="920" y="50" width="120" height="40" as="geometry" />
        </mxCell>
        <mxCell id="ilbIun8MK31R_7p89Azp-189" value="service_status" style="ellipse;whiteSpace=wrap;html=1;" vertex="1" parent="1">
          <mxGeometry x="920" y="295" width="120" height="40" as="geometry" />
        </mxCell>
        <mxCell id="ilbIun8MK31R_7p89Azp-193" style="edgeStyle=orthogonalEdgeStyle;rounded=0;orthogonalLoop=1;jettySize=auto;html=1;exitX=1.01;exitY=0.835;exitDx=0;exitDy=0;entryX=0;entryY=0.5;entryDx=0;entryDy=0;exitPerimeter=0;" edge="1" parent="1" source="ilbIun8MK31R_7p89Azp-196" target="ilbIun8MK31R_7p89Azp-198">
          <mxGeometry relative="1" as="geometry">
            <Array as="points">
              <mxPoint x="861" y="-50" />
              <mxPoint x="960" y="-50" />
            </Array>
          </mxGeometry>
        </mxCell>
        <mxCell id="ilbIun8MK31R_7p89Azp-195" style="edgeStyle=orthogonalEdgeStyle;rounded=0;orthogonalLoop=1;jettySize=auto;html=1;exitX=1;exitY=0.25;exitDx=0;exitDy=0;entryX=0;entryY=0.5;entryDx=0;entryDy=0;" edge="1" parent="1" source="ilbIun8MK31R_7p89Azp-196" target="ilbIun8MK31R_7p89Azp-199">
          <mxGeometry relative="1" as="geometry">
            <Array as="points">
              <mxPoint x="860" y="-110" />
            </Array>
          </mxGeometry>
        </mxCell>
        <mxCell id="ilbIun8MK31R_7p89Azp-196" value="service_status" style="rounded=0;whiteSpace=wrap;html=1;" vertex="1" parent="1">
          <mxGeometry x="740" y="-110" width="120" height="60" as="geometry" />
        </mxCell>
        <mxCell id="ilbIun8MK31R_7p89Azp-198" value="status_description" style="ellipse;whiteSpace=wrap;html=1;" vertex="1" parent="1">
          <mxGeometry x="920" y="-70" width="120" height="40" as="geometry" />
        </mxCell>
        <mxCell id="ilbIun8MK31R_7p89Azp-199" value="service_status_id" style="ellipse;whiteSpace=wrap;html=1;" vertex="1" parent="1">
          <mxGeometry x="920" y="-130" width="120" height="40" as="geometry" />
        </mxCell>
        <mxCell id="ilbIun8MK31R_7p89Azp-285" style="edgeStyle=orthogonalEdgeStyle;rounded=0;orthogonalLoop=1;jettySize=auto;html=1;exitX=0.5;exitY=0;exitDx=0;exitDy=0;entryX=1;entryY=0.5;entryDx=0;entryDy=0;" edge="1" parent="1" source="ilbIun8MK31R_7p89Azp-209" target="ilbIun8MK31R_7p89Azp-216">
          <mxGeometry relative="1" as="geometry" />
        </mxCell>
        <mxCell id="ilbIun8MK31R_7p89Azp-286" style="edgeStyle=orthogonalEdgeStyle;rounded=0;orthogonalLoop=1;jettySize=auto;html=1;exitX=0.25;exitY=0;exitDx=0;exitDy=0;entryX=1;entryY=0.5;entryDx=0;entryDy=0;" edge="1" parent="1" source="ilbIun8MK31R_7p89Azp-209" target="ilbIun8MK31R_7p89Azp-214">
          <mxGeometry relative="1" as="geometry" />
        </mxCell>
        <mxCell id="ilbIun8MK31R_7p89Azp-287" style="edgeStyle=orthogonalEdgeStyle;rounded=0;orthogonalLoop=1;jettySize=auto;html=1;exitX=0;exitY=0;exitDx=0;exitDy=0;" edge="1" parent="1" source="ilbIun8MK31R_7p89Azp-209" target="ilbIun8MK31R_7p89Azp-210">
          <mxGeometry relative="1" as="geometry" />
        </mxCell>
        <mxCell id="ilbIun8MK31R_7p89Azp-288" style="edgeStyle=orthogonalEdgeStyle;rounded=0;orthogonalLoop=1;jettySize=auto;html=1;exitX=0;exitY=0.5;exitDx=0;exitDy=0;entryX=1;entryY=0.5;entryDx=0;entryDy=0;" edge="1" parent="1" source="ilbIun8MK31R_7p89Azp-209" target="ilbIun8MK31R_7p89Azp-212">
          <mxGeometry relative="1" as="geometry" />
        </mxCell>
        <mxCell id="ilbIun8MK31R_7p89Azp-289" style="edgeStyle=orthogonalEdgeStyle;rounded=0;orthogonalLoop=1;jettySize=auto;html=1;exitX=0.25;exitY=1;exitDx=0;exitDy=0;entryX=1;entryY=0.5;entryDx=0;entryDy=0;" edge="1" parent="1" source="ilbIun8MK31R_7p89Azp-209" target="ilbIun8MK31R_7p89Azp-211">
          <mxGeometry relative="1" as="geometry" />
        </mxCell>
        <mxCell id="ilbIun8MK31R_7p89Azp-291" style="edgeStyle=orthogonalEdgeStyle;rounded=0;orthogonalLoop=1;jettySize=auto;html=1;exitX=0.75;exitY=1;exitDx=0;exitDy=0;entryX=1;entryY=0.5;entryDx=0;entryDy=0;" edge="1" parent="1" source="ilbIun8MK31R_7p89Azp-209" target="ilbIun8MK31R_7p89Azp-215">
          <mxGeometry relative="1" as="geometry" />
        </mxCell>
        <mxCell id="ilbIun8MK31R_7p89Azp-327" style="edgeStyle=orthogonalEdgeStyle;rounded=0;orthogonalLoop=1;jettySize=auto;html=1;exitX=0.75;exitY=0;exitDx=0;exitDy=0;entryX=0.5;entryY=1;entryDx=0;entryDy=0;endArrow=none;startFill=0;" edge="1" parent="1" source="ilbIun8MK31R_7p89Azp-209" target="ilbIun8MK31R_7p89Azp-326">
          <mxGeometry relative="1" as="geometry" />
        </mxCell>
        <mxCell id="ilbIun8MK31R_7p89Azp-209" value=" invoices" style="rounded=0;whiteSpace=wrap;html=1;" vertex="1" parent="1">
          <mxGeometry x="-810" y="-435" width="120" height="60" as="geometry" />
        </mxCell>
        <mxCell id="ilbIun8MK31R_7p89Azp-210" value="&lt;code data-end=&quot;1852&quot; data-start=&quot;1838&quot;&gt;customer_id&lt;/code&gt;" style="ellipse;whiteSpace=wrap;html=1;" vertex="1" parent="1">
          <mxGeometry x="-990" y="-475" width="120" height="40" as="geometry" />
        </mxCell>
        <mxCell id="ilbIun8MK31R_7p89Azp-211" value="&lt;code data-end=&quot;2683&quot; data-start=&quot;2669&quot;&gt;final_amount&lt;/code&gt;" style="ellipse;whiteSpace=wrap;html=1;" vertex="1" parent="1">
          <mxGeometry x="-990" y="-375" width="120" height="40" as="geometry" />
        </mxCell>
        <mxCell id="ilbIun8MK31R_7p89Azp-212" value="&lt;code data-end=&quot;2587&quot; data-start=&quot;2571&quot;&gt;reservation_id&lt;/code&gt;" style="ellipse;whiteSpace=wrap;html=1;" vertex="1" parent="1">
          <mxGeometry x="-990" y="-425" width="120" height="40" as="geometry" />
        </mxCell>
        <mxCell id="ilbIun8MK31R_7p89Azp-213" value="discount" style="ellipse;whiteSpace=wrap;html=1;" vertex="1" parent="1">
          <mxGeometry x="-990" y="-330" width="120" height="40" as="geometry" />
        </mxCell>
        <mxCell id="ilbIun8MK31R_7p89Azp-214" value="invoice_id" style="ellipse;whiteSpace=wrap;html=1;" vertex="1" parent="1">
          <mxGeometry x="-990" y="-525" width="120" height="40" as="geometry" />
        </mxCell>
        <mxCell id="ilbIun8MK31R_7p89Azp-215" value="&lt;code data-end=&quot;2713&quot; data-start=&quot;2697&quot;&gt;payment_status&lt;/code&gt;" style="ellipse;whiteSpace=wrap;html=1;" vertex="1" parent="1">
          <mxGeometry x="-990" y="-280" width="120" height="40" as="geometry" />
        </mxCell>
        <mxCell id="ilbIun8MK31R_7p89Azp-216" value="created_datetime" style="ellipse;whiteSpace=wrap;html=1;" vertex="1" parent="1">
          <mxGeometry x="-990" y="-570" width="120" height="40" as="geometry" />
        </mxCell>
        <mxCell id="ilbIun8MK31R_7p89Azp-320" style="edgeStyle=orthogonalEdgeStyle;rounded=0;orthogonalLoop=1;jettySize=auto;html=1;exitX=0.25;exitY=0;exitDx=0;exitDy=0;entryX=0.5;entryY=1;entryDx=0;entryDy=0;" edge="1" parent="1" source="ilbIun8MK31R_7p89Azp-224" target="ilbIun8MK31R_7p89Azp-228">
          <mxGeometry relative="1" as="geometry" />
        </mxCell>
        <mxCell id="ilbIun8MK31R_7p89Azp-321" style="edgeStyle=orthogonalEdgeStyle;rounded=0;orthogonalLoop=1;jettySize=auto;html=1;exitX=0.75;exitY=0;exitDx=0;exitDy=0;entryX=0.5;entryY=1;entryDx=0;entryDy=0;" edge="1" parent="1" source="ilbIun8MK31R_7p89Azp-224" target="ilbIun8MK31R_7p89Azp-230">
          <mxGeometry relative="1" as="geometry" />
        </mxCell>
        <mxCell id="ilbIun8MK31R_7p89Azp-322" style="edgeStyle=orthogonalEdgeStyle;rounded=0;orthogonalLoop=1;jettySize=auto;html=1;exitX=1;exitY=0.25;exitDx=0;exitDy=0;entryX=0;entryY=0.5;entryDx=0;entryDy=0;" edge="1" parent="1" source="ilbIun8MK31R_7p89Azp-224" target="ilbIun8MK31R_7p89Azp-229">
          <mxGeometry relative="1" as="geometry" />
        </mxCell>
        <mxCell id="ilbIun8MK31R_7p89Azp-323" style="edgeStyle=orthogonalEdgeStyle;rounded=0;orthogonalLoop=1;jettySize=auto;html=1;exitX=1;exitY=0.75;exitDx=0;exitDy=0;entryX=0;entryY=0.5;entryDx=0;entryDy=0;" edge="1" parent="1" source="ilbIun8MK31R_7p89Azp-224" target="ilbIun8MK31R_7p89Azp-225">
          <mxGeometry relative="1" as="geometry" />
        </mxCell>
        <mxCell id="ilbIun8MK31R_7p89Azp-324" style="edgeStyle=orthogonalEdgeStyle;rounded=0;orthogonalLoop=1;jettySize=auto;html=1;exitX=0;exitY=0.25;exitDx=0;exitDy=0;entryX=1;entryY=0.5;entryDx=0;entryDy=0;" edge="1" parent="1" source="ilbIun8MK31R_7p89Azp-224" target="ilbIun8MK31R_7p89Azp-227">
          <mxGeometry relative="1" as="geometry" />
        </mxCell>
        <mxCell id="ilbIun8MK31R_7p89Azp-325" style="edgeStyle=orthogonalEdgeStyle;rounded=0;orthogonalLoop=1;jettySize=auto;html=1;exitX=0;exitY=0.75;exitDx=0;exitDy=0;entryX=1;entryY=0.5;entryDx=0;entryDy=0;" edge="1" parent="1" source="ilbIun8MK31R_7p89Azp-224" target="ilbIun8MK31R_7p89Azp-226">
          <mxGeometry relative="1" as="geometry" />
        </mxCell>
        <mxCell id="ilbIun8MK31R_7p89Azp-224" value="payments" style="rounded=0;whiteSpace=wrap;html=1;" vertex="1" parent="1">
          <mxGeometry x="-660" y="-780" width="120" height="60" as="geometry" />
        </mxCell>
        <mxCell id="ilbIun8MK31R_7p89Azp-225" value="&lt;code data-end=&quot;2842&quot; data-start=&quot;2830&quot;&gt;invoice_id&lt;/code&gt;" style="ellipse;whiteSpace=wrap;html=1;" vertex="1" parent="1">
          <mxGeometry x="-470" y="-740" width="120" height="40" as="geometry" />
        </mxCell>
        <mxCell id="ilbIun8MK31R_7p89Azp-226" value="&lt;code data-end=&quot;2939&quot; data-start=&quot;2923&quot;&gt;payment_method&lt;/code&gt;" style="ellipse;whiteSpace=wrap;html=1;" vertex="1" parent="1">
          <mxGeometry x="-860" y="-740" width="120" height="40" as="geometry" />
        </mxCell>
        <mxCell id="ilbIun8MK31R_7p89Azp-227" value="&lt;code data-end=&quot;2904&quot; data-start=&quot;2892&quot;&gt;payhere_id&lt;/code&gt;" style="ellipse;whiteSpace=wrap;html=1;" vertex="1" parent="1">
          <mxGeometry x="-850" y="-810" width="120" height="40" as="geometry" />
        </mxCell>
        <mxCell id="ilbIun8MK31R_7p89Azp-228" value="&lt;code data-end=&quot;2966&quot; data-start=&quot;2958&quot;&gt;amount&lt;/code&gt;" style="ellipse;whiteSpace=wrap;html=1;" vertex="1" parent="1">
          <mxGeometry x="-750" y="-890" width="120" height="40" as="geometry" />
        </mxCell>
        <mxCell id="ilbIun8MK31R_7p89Azp-229" value="payment_id" style="ellipse;whiteSpace=wrap;html=1;" vertex="1" parent="1">
          <mxGeometry x="-460" y="-810" width="120" height="40" as="geometry" />
        </mxCell>
        <mxCell id="ilbIun8MK31R_7p89Azp-230" value="&lt;code data-end=&quot;3002&quot; data-start=&quot;2980&quot;&gt;transaction_datetime&lt;/code&gt;" style="ellipse;whiteSpace=wrap;html=1;" vertex="1" parent="1">
          <mxGeometry x="-580" y="-890" width="120" height="40" as="geometry" />
        </mxCell>
        <mxCell id="ilbIun8MK31R_7p89Azp-299" style="edgeStyle=orthogonalEdgeStyle;rounded=0;orthogonalLoop=1;jettySize=auto;html=1;exitX=0.5;exitY=0;exitDx=0;exitDy=0;entryX=1;entryY=0.5;entryDx=0;entryDy=0;" edge="1" parent="1" source="ilbIun8MK31R_7p89Azp-237" target="ilbIun8MK31R_7p89Azp-238">
          <mxGeometry relative="1" as="geometry" />
        </mxCell>
        <mxCell id="ilbIun8MK31R_7p89Azp-300" style="edgeStyle=orthogonalEdgeStyle;rounded=0;orthogonalLoop=1;jettySize=auto;html=1;exitX=0;exitY=0.5;exitDx=0;exitDy=0;entryX=1;entryY=0.5;entryDx=0;entryDy=0;" edge="1" parent="1" source="ilbIun8MK31R_7p89Azp-237" target="ilbIun8MK31R_7p89Azp-240">
          <mxGeometry relative="1" as="geometry" />
        </mxCell>
        <mxCell id="ilbIun8MK31R_7p89Azp-301" style="edgeStyle=orthogonalEdgeStyle;rounded=0;orthogonalLoop=1;jettySize=auto;html=1;exitX=0.5;exitY=1;exitDx=0;exitDy=0;entryX=1;entryY=0.5;entryDx=0;entryDy=0;" edge="1" parent="1" source="ilbIun8MK31R_7p89Azp-237" target="ilbIun8MK31R_7p89Azp-239">
          <mxGeometry relative="1" as="geometry" />
        </mxCell>
        <mxCell id="ilbIun8MK31R_7p89Azp-237" value="login_history" style="rounded=0;whiteSpace=wrap;html=1;" vertex="1" parent="1">
          <mxGeometry x="-830" y="-150" width="120" height="60" as="geometry" />
        </mxCell>
        <mxCell id="ilbIun8MK31R_7p89Azp-238" value="&lt;code data-end=&quot;2842&quot; data-start=&quot;2830&quot;&gt;login_id&lt;/code&gt;" style="ellipse;whiteSpace=wrap;html=1;" vertex="1" parent="1">
          <mxGeometry x="-990" y="-190" width="120" height="40" as="geometry" />
        </mxCell>
        <mxCell id="ilbIun8MK31R_7p89Azp-239" value="&lt;code data-end=&quot;3156&quot; data-start=&quot;3145&quot;&gt;date_time&lt;/code&gt;" style="ellipse;whiteSpace=wrap;html=1;" vertex="1" parent="1">
          <mxGeometry x="-990" y="-90" width="120" height="40" as="geometry" />
        </mxCell>
        <mxCell id="ilbIun8MK31R_7p89Azp-240" value="&lt;code data-end=&quot;2904&quot; data-start=&quot;2892&quot;&gt;user_id&lt;/code&gt;" style="ellipse;whiteSpace=wrap;html=1;" vertex="1" parent="1">
          <mxGeometry x="-990" y="-140" width="120" height="40" as="geometry" />
        </mxCell>
        <mxCell id="ilbIun8MK31R_7p89Azp-246" style="edgeStyle=orthogonalEdgeStyle;rounded=0;orthogonalLoop=1;jettySize=auto;html=1;exitX=0.5;exitY=1;exitDx=0;exitDy=0;entryX=0.5;entryY=0;entryDx=0;entryDy=0;endArrow=none;startFill=0;" edge="1" parent="1" source="ilbIun8MK31R_7p89Azp-244" target="ilbIun8MK31R_7p89Azp-89">
          <mxGeometry relative="1" as="geometry">
            <Array as="points">
              <mxPoint x="225" y="940" />
            </Array>
          </mxGeometry>
        </mxCell>
        <mxCell id="ilbIun8MK31R_7p89Azp-244" value="OWNS" style="rhombus;whiteSpace=wrap;html=1;strokeColor=default;" vertex="1" parent="1">
          <mxGeometry x="185" y="670" width="80" height="80" as="geometry" />
        </mxCell>
        <mxCell id="ilbIun8MK31R_7p89Azp-245" style="edgeStyle=orthogonalEdgeStyle;rounded=0;orthogonalLoop=1;jettySize=auto;html=1;exitX=0.5;exitY=0;exitDx=0;exitDy=0;entryX=0.5;entryY=1;entryDx=0;entryDy=0;strokeColor=default;endArrow=none;startFill=0;" edge="1" parent="1" source="ilbIun8MK31R_7p89Azp-244" target="ilbIun8MK31R_7p89Azp-2">
          <mxGeometry relative="1" as="geometry" />
        </mxCell>
        <mxCell id="ilbIun8MK31R_7p89Azp-250" style="edgeStyle=orthogonalEdgeStyle;rounded=0;orthogonalLoop=1;jettySize=auto;html=1;exitX=0;exitY=0.5;exitDx=0;exitDy=0;entryX=1;entryY=0.5;entryDx=0;entryDy=0;endArrow=none;startFill=0;" edge="1" parent="1" source="ilbIun8MK31R_7p89Azp-248" target="ilbIun8MK31R_7p89Azp-3">
          <mxGeometry relative="1" as="geometry" />
        </mxCell>
        <mxCell id="ilbIun8MK31R_7p89Azp-248" value="HAS" style="rhombus;whiteSpace=wrap;html=1;strokeColor=default;" vertex="1" parent="1">
          <mxGeometry x="-40" y="70" width="80" height="80" as="geometry" />
        </mxCell>
        <mxCell id="ilbIun8MK31R_7p89Azp-254" style="edgeStyle=orthogonalEdgeStyle;rounded=0;orthogonalLoop=1;jettySize=auto;html=1;entryX=1;entryY=0.5;entryDx=0;entryDy=0;endArrow=none;startFill=0;" edge="1" parent="1" source="ilbIun8MK31R_7p89Azp-252" target="ilbIun8MK31R_7p89Azp-78">
          <mxGeometry relative="1" as="geometry" />
        </mxCell>
        <mxCell id="ilbIun8MK31R_7p89Azp-252" value="&lt;table&gt;&lt;tbody&gt;&lt;tr&gt;&lt;td&gt;&lt;/td&gt;&lt;/tr&gt;&lt;/tbody&gt;&lt;/table&gt;&lt;table&gt;&lt;tbody&gt;&lt;tr&gt;&lt;td&gt;BELONGS TO&lt;/td&gt;&lt;/tr&gt;&lt;/tbody&gt;&lt;/table&gt;" style="rhombus;whiteSpace=wrap;html=1;strokeColor=default;" vertex="1" parent="1">
          <mxGeometry x="-60" y="350" width="80" height="80" as="geometry" />
        </mxCell>
        <mxCell id="ilbIun8MK31R_7p89Azp-259" style="edgeStyle=orthogonalEdgeStyle;rounded=0;orthogonalLoop=1;jettySize=auto;html=1;exitX=0.5;exitY=0;exitDx=0;exitDy=0;entryX=0.5;entryY=1;entryDx=0;entryDy=0;endArrow=none;startFill=0;" edge="1" parent="1" source="ilbIun8MK31R_7p89Azp-258" target="ilbIun8MK31R_7p89Azp-89">
          <mxGeometry relative="1" as="geometry">
            <Array as="points">
              <mxPoint x="221" y="1000" />
            </Array>
          </mxGeometry>
        </mxCell>
        <mxCell id="ilbIun8MK31R_7p89Azp-258" value="OWNS" style="rhombus;whiteSpace=wrap;html=1;strokeColor=default;" vertex="1" parent="1">
          <mxGeometry x="181" y="1225" width="80" height="80" as="geometry" />
        </mxCell>
        <mxCell id="ilbIun8MK31R_7p89Azp-260" style="edgeStyle=orthogonalEdgeStyle;rounded=0;orthogonalLoop=1;jettySize=auto;html=1;exitX=0.5;exitY=1;exitDx=0;exitDy=0;entryX=0.416;entryY=0.083;entryDx=0;entryDy=0;entryPerimeter=0;endArrow=none;startFill=0;" edge="1" parent="1" source="ilbIun8MK31R_7p89Azp-258" target="ilbIun8MK31R_7p89Azp-112">
          <mxGeometry relative="1" as="geometry">
            <Array as="points">
              <mxPoint x="220" y="1325" />
            </Array>
          </mxGeometry>
        </mxCell>
        <mxCell id="ilbIun8MK31R_7p89Azp-263" style="edgeStyle=orthogonalEdgeStyle;rounded=0;orthogonalLoop=1;jettySize=auto;html=1;exitX=0;exitY=0.5;exitDx=0;exitDy=0;entryX=1;entryY=0.5;entryDx=0;entryDy=0;endArrow=none;startFill=0;" edge="1" parent="1" source="ilbIun8MK31R_7p89Azp-261" target="ilbIun8MK31R_7p89Azp-121">
          <mxGeometry relative="1" as="geometry" />
        </mxCell>
        <mxCell id="ilbIun8MK31R_7p89Azp-261" value="MANUFACTURED BY" style="rhombus;whiteSpace=wrap;html=1;strokeColor=default;" vertex="1" parent="1">
          <mxGeometry x="-90" y="1145" width="80" height="80" as="geometry" />
        </mxCell>
        <mxCell id="ilbIun8MK31R_7p89Azp-266" style="edgeStyle=orthogonalEdgeStyle;rounded=0;orthogonalLoop=1;jettySize=auto;html=1;exitX=0;exitY=0.5;exitDx=0;exitDy=0;entryX=1;entryY=0.5;entryDx=0;entryDy=0;endArrow=none;startFill=0;" edge="1" parent="1" source="ilbIun8MK31R_7p89Azp-265" target="ilbIun8MK31R_7p89Azp-151">
          <mxGeometry relative="1" as="geometry" />
        </mxCell>
        <mxCell id="ilbIun8MK31R_7p89Azp-265" value="MAKES" style="rhombus;whiteSpace=wrap;html=1;strokeColor=default;" vertex="1" parent="1">
          <mxGeometry x="-40" y="610" width="80" height="80" as="geometry" />
        </mxCell>
        <mxCell id="ilbIun8MK31R_7p89Azp-269" style="edgeStyle=orthogonalEdgeStyle;rounded=0;orthogonalLoop=1;jettySize=auto;html=1;exitX=0;exitY=0.5;exitDx=0;exitDy=0;entryX=0.75;entryY=1;entryDx=0;entryDy=0;endArrow=none;startFill=0;" edge="1" parent="1" source="ilbIun8MK31R_7p89Azp-268" target="ilbIun8MK31R_7p89Azp-151">
          <mxGeometry relative="1" as="geometry" />
        </mxCell>
        <mxCell id="ilbIun8MK31R_7p89Azp-268" value="&lt;table&gt;&lt;tbody&gt;&lt;tr&gt;&lt;td&gt;&lt;/td&gt;&lt;/tr&gt;&lt;/tbody&gt;&lt;/table&gt;&lt;table&gt;&lt;tbody&gt;&lt;tr&gt;&lt;td&gt;BOOKS&lt;/td&gt;&lt;/tr&gt;&lt;/tbody&gt;&lt;/table&gt;" style="rhombus;whiteSpace=wrap;html=1;strokeColor=default;" vertex="1" parent="1">
          <mxGeometry x="-90" y="710" width="80" height="80" as="geometry" />
        </mxCell>
        <mxCell id="ilbIun8MK31R_7p89Azp-273" style="edgeStyle=orthogonalEdgeStyle;rounded=0;orthogonalLoop=1;jettySize=auto;html=1;exitX=1;exitY=0.5;exitDx=0;exitDy=0;entryX=0;entryY=0.5;entryDx=0;entryDy=0;endArrow=none;startFill=0;" edge="1" parent="1" source="ilbIun8MK31R_7p89Azp-271" target="ilbIun8MK31R_7p89Azp-164">
          <mxGeometry relative="1" as="geometry" />
        </mxCell>
        <mxCell id="ilbIun8MK31R_7p89Azp-271" value="&lt;table&gt;&lt;tbody&gt;&lt;tr&gt;&lt;td&gt;&lt;/td&gt;&lt;/tr&gt;&lt;/tbody&gt;&lt;/table&gt;&lt;table&gt;&lt;tbody&gt;&lt;tr&gt;&lt;td&gt;INCLUDES&lt;/td&gt;&lt;/tr&gt;&lt;/tbody&gt;&lt;/table&gt;" style="rhombus;whiteSpace=wrap;html=1;strokeColor=default;" vertex="1" parent="1">
          <mxGeometry x="320" y="470" width="80" height="80" as="geometry" />
        </mxCell>
        <mxCell id="ilbIun8MK31R_7p89Azp-276" style="edgeStyle=orthogonalEdgeStyle;rounded=0;orthogonalLoop=1;jettySize=auto;html=1;exitX=1;exitY=0.5;exitDx=0;exitDy=0;entryX=0;entryY=0.5;entryDx=0;entryDy=0;endArrow=none;startFill=0;" edge="1" parent="1" source="ilbIun8MK31R_7p89Azp-274" target="ilbIun8MK31R_7p89Azp-183">
          <mxGeometry relative="1" as="geometry" />
        </mxCell>
        <mxCell id="ilbIun8MK31R_7p89Azp-274" value="HAS SERVICE RECORD" style="rhombus;whiteSpace=wrap;html=1;strokeColor=default;" vertex="1" parent="1">
          <mxGeometry x="305" y="140" width="80" height="80" as="geometry" />
        </mxCell>
        <mxCell id="ilbIun8MK31R_7p89Azp-277" style="edgeStyle=orthogonalEdgeStyle;rounded=0;orthogonalLoop=1;jettySize=auto;html=1;exitX=0;exitY=0.5;exitDx=0;exitDy=0;entryX=0.631;entryY=-0.006;entryDx=0;entryDy=0;entryPerimeter=0;" edge="1" parent="1" source="ilbIun8MK31R_7p89Azp-274" target="ilbIun8MK31R_7p89Azp-89">
          <mxGeometry relative="1" as="geometry" />
        </mxCell>
        <mxCell id="ilbIun8MK31R_7p89Azp-281" style="edgeStyle=orthogonalEdgeStyle;rounded=0;orthogonalLoop=1;jettySize=auto;html=1;entryX=0;entryY=0.25;entryDx=0;entryDy=0;exitX=0.5;exitY=1;exitDx=0;exitDy=0;endArrow=none;startFill=0;" edge="1" parent="1" source="ilbIun8MK31R_7p89Azp-279" target="ilbIun8MK31R_7p89Azp-164">
          <mxGeometry relative="1" as="geometry" />
        </mxCell>
        <mxCell id="ilbIun8MK31R_7p89Azp-279" value="&lt;table&gt;&lt;tbody&gt;&lt;tr&gt;&lt;td&gt;&lt;/td&gt;&lt;/tr&gt;&lt;/tbody&gt;&lt;/table&gt;&lt;table&gt;&lt;tbody&gt;&lt;tr&gt;&lt;td&gt;APPLIES&lt;/td&gt;&lt;/tr&gt;&lt;/tbody&gt;&lt;/table&gt;" style="rhombus;whiteSpace=wrap;html=1;strokeColor=default;" vertex="1" parent="1">
          <mxGeometry x="600" y="295" width="80" height="80" as="geometry" />
        </mxCell>
        <mxCell id="ilbIun8MK31R_7p89Azp-283" style="edgeStyle=orthogonalEdgeStyle;rounded=0;orthogonalLoop=1;jettySize=auto;html=1;entryX=0;entryY=0.5;entryDx=0;entryDy=0;exitX=0.5;exitY=0;exitDx=0;exitDy=0;endArrow=none;startFill=0;" edge="1" parent="1" source="ilbIun8MK31R_7p89Azp-282" target="ilbIun8MK31R_7p89Azp-196">
          <mxGeometry relative="1" as="geometry" />
        </mxCell>
        <mxCell id="ilbIun8MK31R_7p89Azp-284" style="edgeStyle=orthogonalEdgeStyle;rounded=0;orthogonalLoop=1;jettySize=auto;html=1;exitX=0.5;exitY=1;exitDx=0;exitDy=0;entryX=0;entryY=0.25;entryDx=0;entryDy=0;endArrow=none;startFill=0;" edge="1" parent="1" source="ilbIun8MK31R_7p89Azp-282" target="ilbIun8MK31R_7p89Azp-183">
          <mxGeometry relative="1" as="geometry" />
        </mxCell>
        <mxCell id="ilbIun8MK31R_7p89Azp-282" value="&lt;table&gt;&lt;tbody&gt;&lt;tr&gt;&lt;td&gt;&lt;/td&gt;&lt;/tr&gt;&lt;/tbody&gt;&lt;/table&gt;&lt;table&gt;&lt;tbody&gt;&lt;tr&gt;&lt;td&gt;HAS STATUS&lt;/td&gt;&lt;/tr&gt;&lt;/tbody&gt;&lt;/table&gt;" style="rhombus;whiteSpace=wrap;html=1;strokeColor=default;" vertex="1" parent="1">
          <mxGeometry x="600" y="-10" width="80" height="80" as="geometry" />
        </mxCell>
        <mxCell id="ilbIun8MK31R_7p89Azp-290" style="edgeStyle=orthogonalEdgeStyle;rounded=0;orthogonalLoop=1;jettySize=auto;html=1;exitX=0.5;exitY=1;exitDx=0;exitDy=0;entryX=1;entryY=0.5;entryDx=0;entryDy=0;" edge="1" parent="1" source="ilbIun8MK31R_7p89Azp-209" target="ilbIun8MK31R_7p89Azp-213">
          <mxGeometry relative="1" as="geometry" />
        </mxCell>
        <mxCell id="ilbIun8MK31R_7p89Azp-305" style="edgeStyle=orthogonalEdgeStyle;rounded=0;orthogonalLoop=1;jettySize=auto;html=1;exitX=0;exitY=0.5;exitDx=0;exitDy=0;entryX=1;entryY=0.5;entryDx=0;entryDy=0;endArrow=none;startFill=0;" edge="1" parent="1" source="ilbIun8MK31R_7p89Azp-303" target="ilbIun8MK31R_7p89Azp-209">
          <mxGeometry relative="1" as="geometry">
            <Array as="points">
              <mxPoint x="-690" y="-425" />
            </Array>
          </mxGeometry>
        </mxCell>
        <mxCell id="ilbIun8MK31R_7p89Azp-303" value="BILLED TO" style="rhombus;whiteSpace=wrap;html=1;strokeColor=default;" vertex="1" parent="1">
          <mxGeometry x="-500" y="-465" width="80" height="80" as="geometry" />
        </mxCell>
        <mxCell id="ilbIun8MK31R_7p89Azp-311" style="edgeStyle=orthogonalEdgeStyle;rounded=0;orthogonalLoop=1;jettySize=auto;html=1;entryX=1;entryY=0.5;entryDx=0;entryDy=0;endArrow=none;startFill=0;" edge="1" parent="1" source="ilbIun8MK31R_7p89Azp-309" target="ilbIun8MK31R_7p89Azp-237">
          <mxGeometry relative="1" as="geometry" />
        </mxCell>
        <mxCell id="ilbIun8MK31R_7p89Azp-309" value="&lt;table&gt;&lt;tbody&gt;&lt;tr&gt;&lt;td&gt;&lt;/td&gt;&lt;/tr&gt;&lt;/tbody&gt;&lt;/table&gt;&lt;table&gt;&lt;tbody&gt;&lt;tr&gt;&lt;td&gt;LOGS IN&lt;/td&gt;&lt;/tr&gt;&lt;/tbody&gt;&lt;/table&gt;" style="rhombus;whiteSpace=wrap;html=1;rounded=0;" vertex="1" parent="1">
          <mxGeometry x="-490" y="-160" width="85" height="80" as="geometry" />
        </mxCell>
        <mxCell id="ilbIun8MK31R_7p89Azp-318" style="edgeStyle=orthogonalEdgeStyle;rounded=0;orthogonalLoop=1;jettySize=auto;html=1;entryX=1;entryY=0.75;entryDx=0;entryDy=0;endArrow=none;startFill=0;" edge="1" parent="1" source="ilbIun8MK31R_7p89Azp-317" target="ilbIun8MK31R_7p89Azp-209">
          <mxGeometry relative="1" as="geometry" />
        </mxCell>
        <mxCell id="ilbIun8MK31R_7p89Azp-317" value="GENERATED FOR" style="rhombus;whiteSpace=wrap;html=1;strokeColor=default;" vertex="1" parent="1">
          <mxGeometry x="-630" y="-370" width="80" height="80" as="geometry" />
        </mxCell>
        <mxCell id="ilbIun8MK31R_7p89Azp-328" style="edgeStyle=orthogonalEdgeStyle;rounded=0;orthogonalLoop=1;jettySize=auto;html=1;exitX=0.5;exitY=0;exitDx=0;exitDy=0;entryX=0.5;entryY=1;entryDx=0;entryDy=0;endArrow=none;startFill=0;" edge="1" parent="1" source="ilbIun8MK31R_7p89Azp-326" target="ilbIun8MK31R_7p89Azp-224">
          <mxGeometry relative="1" as="geometry" />
        </mxCell>
        <mxCell id="ilbIun8MK31R_7p89Azp-326" value="&lt;table&gt;&lt;tbody&gt;&lt;tr&gt;&lt;td&gt;&lt;/td&gt;&lt;/tr&gt;&lt;/tbody&gt;&lt;/table&gt;&lt;table&gt;&lt;tbody&gt;&lt;tr&gt;&lt;td&gt;MAKES PAYMENT&lt;/td&gt;&lt;/tr&gt;&lt;/tbody&gt;&lt;/table&gt;" style="rhombus;whiteSpace=wrap;html=1;strokeColor=default;" vertex="1" parent="1">
          <mxGeometry x="-640" y="-590" width="80" height="80" as="geometry" />
        </mxCell>
        <mxCell id="ilbIun8MK31R_7p89Azp-329" value="1" style="text;html=1;align=center;verticalAlign=middle;resizable=0;points=[];autosize=1;strokeColor=none;fillColor=none;" vertex="1" parent="1">
          <mxGeometry x="35" y="68" width="30" height="30" as="geometry" />
        </mxCell>
        <mxCell id="ilbIun8MK31R_7p89Azp-330" value="N" style="text;html=1;align=center;verticalAlign=middle;resizable=0;points=[];autosize=1;strokeColor=none;fillColor=none;" vertex="1" parent="1">
          <mxGeometry x="-75" y="68" width="30" height="30" as="geometry" />
        </mxCell>
        <mxCell id="ilbIun8MK31R_7p89Azp-331" value="N" style="text;html=1;align=center;verticalAlign=middle;resizable=0;points=[];autosize=1;strokeColor=none;fillColor=none;" vertex="1" parent="1">
          <mxGeometry x="15" y="348" width="30" height="30" as="geometry" />
        </mxCell>
        <mxCell id="ilbIun8MK31R_7p89Azp-332" value="1" style="text;html=1;align=center;verticalAlign=middle;resizable=0;points=[];autosize=1;strokeColor=none;fillColor=none;" vertex="1" parent="1">
          <mxGeometry x="-90" y="350" width="30" height="30" as="geometry" />
        </mxCell>
        <mxCell id="ilbIun8MK31R_7p89Azp-333" value="1" style="text;html=1;align=center;verticalAlign=middle;resizable=0;points=[];autosize=1;strokeColor=none;fillColor=none;" vertex="1" parent="1">
          <mxGeometry x="225" y="628" width="30" height="30" as="geometry" />
        </mxCell>
        <mxCell id="ilbIun8MK31R_7p89Azp-334" value="N" style="text;html=1;align=center;verticalAlign=middle;resizable=0;points=[];autosize=1;strokeColor=none;fillColor=none;" vertex="1" parent="1">
          <mxGeometry x="225" y="738" width="30" height="30" as="geometry" />
        </mxCell>
        <mxCell id="ilbIun8MK31R_7p89Azp-335" value="N" style="text;html=1;align=center;verticalAlign=middle;resizable=0;points=[];autosize=1;strokeColor=none;fillColor=none;" vertex="1" parent="1">
          <mxGeometry x="-5" y="1138" width="30" height="30" as="geometry" />
        </mxCell>
        <mxCell id="ilbIun8MK31R_7p89Azp-336" value="1" style="text;html=1;align=center;verticalAlign=middle;resizable=0;points=[];autosize=1;strokeColor=none;fillColor=none;" vertex="1" parent="1">
          <mxGeometry x="-125" y="1138" width="30" height="30" as="geometry" />
        </mxCell>
        <mxCell id="ilbIun8MK31R_7p89Azp-337" value="1" style="text;html=1;align=center;verticalAlign=middle;resizable=0;points=[];autosize=1;strokeColor=none;fillColor=none;" vertex="1" parent="1">
          <mxGeometry x="45" y="608" width="30" height="30" as="geometry" />
        </mxCell>
        <mxCell id="ilbIun8MK31R_7p89Azp-338" value="N" style="text;html=1;align=center;verticalAlign=middle;resizable=0;points=[];autosize=1;strokeColor=none;fillColor=none;" vertex="1" parent="1">
          <mxGeometry x="-65" y="608" width="30" height="30" as="geometry" />
        </mxCell>
        <mxCell id="ilbIun8MK31R_7p89Azp-339" value="1" style="text;html=1;align=center;verticalAlign=middle;resizable=0;points=[];autosize=1;strokeColor=none;fillColor=none;" vertex="1" parent="1">
          <mxGeometry x="5" y="708" width="30" height="30" as="geometry" />
        </mxCell>
        <mxCell id="ilbIun8MK31R_7p89Azp-340" value="N" style="text;html=1;align=center;verticalAlign=middle;resizable=0;points=[];autosize=1;strokeColor=none;fillColor=none;" vertex="1" parent="1">
          <mxGeometry x="-125" y="708" width="30" height="30" as="geometry" />
        </mxCell>
        <mxCell id="ilbIun8MK31R_7p89Azp-341" value="N" style="text;html=1;align=center;verticalAlign=middle;resizable=0;points=[];autosize=1;strokeColor=none;fillColor=none;" vertex="1" parent="1">
          <mxGeometry x="295" y="478" width="30" height="30" as="geometry" />
        </mxCell>
        <mxCell id="ilbIun8MK31R_7p89Azp-342" value="1" style="text;html=1;align=center;verticalAlign=middle;resizable=0;points=[];autosize=1;strokeColor=none;fillColor=none;" vertex="1" parent="1">
          <mxGeometry x="415" y="478" width="30" height="30" as="geometry" />
        </mxCell>
        <mxCell id="ilbIun8MK31R_7p89Azp-343" value="N" style="text;html=1;align=center;verticalAlign=middle;resizable=0;points=[];autosize=1;strokeColor=none;fillColor=none;" vertex="1" parent="1">
          <mxGeometry x="395" y="138" width="30" height="30" as="geometry" />
        </mxCell>
        <mxCell id="ilbIun8MK31R_7p89Azp-344" value="1" style="text;html=1;align=center;verticalAlign=middle;resizable=0;points=[];autosize=1;strokeColor=none;fillColor=none;" vertex="1" parent="1">
          <mxGeometry x="265" y="138" width="30" height="30" as="geometry" />
        </mxCell>
        <mxCell id="ilbIun8MK31R_7p89Azp-345" value="1" style="text;html=1;align=center;verticalAlign=middle;resizable=0;points=[];autosize=1;strokeColor=none;fillColor=none;" vertex="1" parent="1">
          <mxGeometry x="645" y="368" width="30" height="30" as="geometry" />
        </mxCell>
        <mxCell id="ilbIun8MK31R_7p89Azp-346" value="N" style="text;html=1;align=center;verticalAlign=middle;resizable=0;points=[];autosize=1;strokeColor=none;fillColor=none;" vertex="1" parent="1">
          <mxGeometry x="645" y="258" width="30" height="30" as="geometry" />
        </mxCell>
        <mxCell id="ilbIun8MK31R_7p89Azp-347" value="N" style="text;html=1;align=center;verticalAlign=middle;resizable=0;points=[];autosize=1;strokeColor=none;fillColor=none;" vertex="1" parent="1">
          <mxGeometry x="645" y="78" width="30" height="30" as="geometry" />
        </mxCell>
        <mxCell id="ilbIun8MK31R_7p89Azp-348" value="1" style="text;html=1;align=center;verticalAlign=middle;resizable=0;points=[];autosize=1;strokeColor=none;fillColor=none;" vertex="1" parent="1">
          <mxGeometry x="645" y="-42" width="30" height="30" as="geometry" />
        </mxCell>
        <mxCell id="ilbIun8MK31R_7p89Azp-349" value="1" style="text;html=1;align=center;verticalAlign=middle;resizable=0;points=[];autosize=1;strokeColor=none;fillColor=none;" vertex="1" parent="1">
          <mxGeometry x="-400" y="-465" width="30" height="30" as="geometry" />
        </mxCell>
        <mxCell id="ilbIun8MK31R_7p89Azp-350" value="N" style="text;html=1;align=center;verticalAlign=middle;resizable=0;points=[];autosize=1;strokeColor=none;fillColor=none;" vertex="1" parent="1">
          <mxGeometry x="-540" y="-470" width="30" height="30" as="geometry" />
        </mxCell>
        <mxCell id="ilbIun8MK31R_7p89Azp-351" value="1" style="text;html=1;align=center;verticalAlign=middle;resizable=0;points=[];autosize=1;strokeColor=none;fillColor=none;" vertex="1" parent="1">
          <mxGeometry x="-675" y="-332" width="30" height="30" as="geometry" />
        </mxCell>
        <mxCell id="ilbIun8MK31R_7p89Azp-352" value="1" style="text;html=1;align=center;verticalAlign=middle;resizable=0;points=[];autosize=1;strokeColor=none;fillColor=none;" vertex="1" parent="1">
          <mxGeometry x="-585" y="-282" width="30" height="30" as="geometry" />
        </mxCell>
        <mxCell id="ilbIun8MK31R_7p89Azp-353" value="N" style="text;html=1;align=center;verticalAlign=middle;resizable=0;points=[];autosize=1;strokeColor=none;fillColor=none;" vertex="1" parent="1">
          <mxGeometry x="-595" y="-622" width="30" height="30" as="geometry" />
        </mxCell>
        <mxCell id="ilbIun8MK31R_7p89Azp-354" value="1" style="text;html=1;align=center;verticalAlign=middle;resizable=0;points=[];autosize=1;strokeColor=none;fillColor=none;" vertex="1" parent="1">
          <mxGeometry x="-675" y="-522" width="30" height="30" as="geometry" />
        </mxCell>
        <mxCell id="ilbIun8MK31R_7p89Azp-355" value="1" style="text;html=1;align=center;verticalAlign=middle;resizable=0;points=[];autosize=1;strokeColor=none;fillColor=none;" vertex="1" parent="1">
          <mxGeometry x="-405" y="-152" width="30" height="30" as="geometry" />
        </mxCell>
        <mxCell id="ilbIun8MK31R_7p89Azp-356" value="N" style="text;html=1;align=center;verticalAlign=middle;resizable=0;points=[];autosize=1;strokeColor=none;fillColor=none;" vertex="1" parent="1">
          <mxGeometry x="-525" y="-152" width="30" height="30" as="geometry" />
        </mxCell>
      </root>
    </mxGraphModel>
  </diagram>
</mxfile>
